<?xml version="1.0" standalone="no"?>
<!DOCTYPE svg PUBLIC "-//W3C//DTD SVG 20010904//EN"
 "http://www.w3.org/TR/2001/REC-SVG-20010904/DTD/svg10.dtd">
<svg version="1.0" xmlns="http://www.w3.org/2000/svg"
 width="640.000000pt" height="640.000000pt" viewBox="0 0 640.000000 640.000000"
 preserveAspectRatio="xMidYMid meet">
<metadata>
Created by potrace 1.14, written by Peter Selinger 2001-2017
</metadata>
<g transform="translate(0.000000,640.000000) scale(0.100000,-0.100000)"
fill="#000000" stroke="none">
<path d="M2180 6137 c-3 -3 -22 -7 -43 -10 -20 -3 -44 -10 -52 -17 -8 -7 -15
-9 -15 -5 0 4 -34 -11 -75 -34 -72 -39 -179 -135 -191 -173 -3 -10 -10 -18
-16 -18 -6 0 -8 -3 -5 -6 4 -4 -2 -19 -12 -33 -10 -14 -31 -48 -47 -76 -15
-27 -36 -63 -46 -80 -10 -16 -22 -40 -27 -52 -5 -11 -15 -24 -21 -28 -5 -3 -8
-11 -5 -16 4 -5 1 -9 -4 -9 -6 0 -11 -5 -11 -11 0 -7 -17 -39 -38 -73 -21 -34
-49 -82 -62 -108 -14 -27 -29 -48 -33 -48 -5 0 -5 -4 -2 -10 3 -5 1 -10 -5
-10 -6 0 -9 -4 -5 -9 3 -6 -2 -14 -10 -19 -9 -5 -17 -15 -18 -24 -2 -8 -10
-27 -20 -41 -9 -15 -17 -31 -17 -36 0 -6 -8 -15 -17 -20 -10 -6 -15 -11 -11
-11 4 0 -9 -28 -29 -62 -19 -35 -47 -83 -61 -108 -14 -25 -30 -48 -36 -52 -6
-4 -7 -8 -2 -8 5 0 4 -6 -2 -12 -5 -7 -25 -40 -43 -73 -18 -33 -40 -71 -50
-84 -11 -13 -16 -27 -13 -32 3 -5 2 -9 -3 -9 -4 0 -19 -21 -33 -47 -13 -27
-27 -50 -30 -53 -3 -3 -14 -22 -25 -43 -24 -46 -22 -45 -66 -52 -58 -10 -132
-36 -184 -66 -52 -29 -139 -108 -165 -148 -8 -13 -20 -29 -25 -35 -24 -25 -79
-191 -69 -207 2 -4 1 -10 -3 -12 -5 -3 -8 -202 -8 -444 l1 -438 -49 -24 c-56
-27 -154 -122 -163 -157 -3 -13 -10 -24 -15 -24 -5 0 -9 -8 -9 -18 0 -10 -3
-22 -7 -26 -15 -15 -17 -58 -20 -512 -3 -409 -1 -477 13 -525 9 -30 21 -57 28
-61 6 -4 7 -8 3 -8 -11 0 52 -90 63 -90 5 0 12 -9 15 -20 3 -11 12 -20 20 -20
7 0 16 -7 19 -16 3 -8 10 -13 15 -10 5 4 11 3 13 -2 1 -4 19 -15 38 -24 l35
-17 2 -413 c1 -435 4 -506 22 -551 6 -15 10 -31 9 -35 -6 -19 56 -122 100
-168 7 -8 10 -14 6 -14 -10 0 42 -45 91 -79 47 -33 117 -70 142 -75 10 -1 27
-7 38 -12 12 -5 1009 -9 2395 -9 2301 0 2377 1 2430 19 73 25 170 77 164 88
-3 4 1 8 10 8 17 0 102 95 133 150 12 22 33 72 47 112 l25 73 0 1655 c0 1056
-3 1677 -9 1715 -6 33 -11 66 -12 73 -1 6 -5 12 -10 12 -4 0 -7 3 -6 8 3 13
-14 62 -21 62 -4 0 -12 15 -19 33 -17 47 -131 158 -200 194 -33 18 -63 29 -66
26 -3 -4 -6 -1 -6 5 0 7 -9 12 -21 12 -11 0 -28 4 -38 10 -10 5 -46 10 -79 12
-33 1 -58 6 -55 11 3 5 -3 5 -13 0 -21 -10 -210 -11 -220 0 -4 3 -14 3 -23 -2
-31 -15 -197 -6 -225 12 -14 9 -28 17 -31 17 -3 0 -24 12 -48 27 -44 29 -63
40 -149 87 -29 15 -60 34 -68 41 -8 8 -26 18 -40 24 -31 14 -63 33 -71 44 -3
5 -8 7 -10 6 -6 -4 -103 53 -111 66 -4 5 -8 6 -8 1 0 -5 -8 -2 -17 6 -10 9
-38 26 -62 38 -25 12 -51 29 -59 36 -7 8 -17 12 -22 9 -5 -3 -10 -2 -12 3 -1
4 -41 30 -88 57 -47 27 -88 53 -91 58 -3 5 -10 9 -15 9 -13 0 -98 51 -102 60
-2 5 -8 6 -13 2 -5 -3 -9 0 -9 6 0 6 -4 8 -10 5 -5 -3 -10 -3 -10 2 0 4 -21
19 -47 33 -27 13 -50 27 -53 30 -3 3 -18 12 -35 20 -16 8 -32 18 -35 21 -3 4
-25 17 -50 29 -25 12 -47 25 -50 29 -3 3 -34 21 -70 40 -36 18 -71 41 -77 49
-7 9 -13 13 -13 9 0 -4 -18 4 -40 18 -23 14 -52 30 -65 35 -14 5 -25 14 -25
20 0 5 -6 10 -12 10 -7 0 -65 32 -128 70 -63 38 -139 82 -167 96 -29 15 -53
31 -53 36 0 5 -4 7 -9 4 -4 -3 -22 5 -40 18 -18 13 -46 30 -62 36 -16 7 -29
17 -29 22 0 5 -4 7 -9 4 -5 -3 -14 0 -20 8 -6 7 -29 21 -51 31 -22 10 -40 22
-40 27 0 5 -4 6 -10 3 -5 -3 -10 -1 -10 4 0 6 -4 11 -9 11 -6 0 -38 17 -73 37
-35 21 -66 36 -70 35 -5 -1 -8 3 -8 8 0 6 -11 15 -23 19 -13 5 -53 27 -88 49
-78 47 -200 105 -207 97 -3 -2 -11 0 -17 5 -12 10 -186 25 -195 17z m129 -274
c6 2 119 -53 156 -76 80 -49 126 -77 130 -77 3 0 24 -12 48 -27 23 -15 45 -27
49 -28 4 0 15 -7 25 -15 10 -9 21 -16 26 -17 4 -1 35 -18 68 -38 33 -19 64
-35 70 -35 5 0 9 -4 9 -8 0 -5 19 -17 41 -28 23 -10 47 -23 53 -29 6 -5 31
-21 56 -34 25 -13 53 -31 63 -39 9 -8 17 -11 17 -6 0 5 4 4 8 -1 8 -13 151
-95 163 -95 5 0 9 -4 9 -10 0 -5 4 -10 10 -10 5 0 39 -18 75 -40 36 -22 68
-40 71 -40 3 0 19 -9 35 -21 16 -11 29 -17 29 -12 0 4 5 0 11 -9 5 -10 15 -18
20 -18 6 0 24 -9 40 -21 16 -11 29 -17 29 -12 0 4 4 3 8 -3 4 -6 77 -50 162
-99 85 -49 157 -92 160 -95 3 -3 19 -12 35 -20 17 -8 54 -30 82 -48 29 -18 64
-37 78 -42 14 -5 25 -15 25 -21 0 -6 7 -9 15 -5 8 3 15 2 15 -2 0 -5 17 -17
38 -28 56 -31 86 -48 92 -54 3 -3 26 -17 53 -30 26 -14 47 -29 47 -33 0 -5 5
-5 10 -2 6 3 10 1 10 -5 0 -6 5 -8 10 -5 6 3 10 1 10 -5 0 -6 5 -8 10 -5 6 3
10 2 10 -2 0 -5 17 -17 38 -28 20 -11 45 -27 54 -35 15 -14 9 -15 -60 -15 -43
1 -83 5 -91 9 -9 6 -12 5 -8 -1 7 -11 -133 -10 -153 2 -8 5 -11 4 -7 -1 3 -6
-30 -9 -86 -9 -92 2 -94 3 -177 51 -47 27 -88 48 -92 46 -5 -1 -8 2 -8 6 0 5
-24 22 -52 37 -29 16 -56 33 -60 39 -4 6 -8 7 -8 3 0 -5 -12 1 -26 12 -15 12
-30 21 -35 21 -5 0 -36 18 -70 40 -34 22 -68 40 -76 40 -7 0 -13 4 -13 8 0 4
-22 19 -50 33 -27 13 -50 27 -50 30 0 4 -11 10 -25 13 -14 4 -25 11 -25 16 0
6 -9 10 -20 10 -11 0 -20 4 -20 8 0 5 -19 18 -42 31 -24 12 -50 26 -58 31 -58
38 -222 130 -230 130 -5 0 -14 8 -19 18 -6 9 -11 14 -11 10 0 -6 -213 114
-270 152 -8 6 -24 14 -35 20 -11 5 -38 21 -60 35 -22 14 -47 28 -55 32 -8 4
-47 26 -86 50 -39 24 -76 43 -82 43 -5 0 -12 7 -16 15 -3 8 -12 15 -20 15 -8
0 -51 23 -95 50 -44 28 -85 50 -91 50 -5 0 -10 4 -10 9 0 5 -8 11 -17 15 -10
3 -40 19 -68 36 -27 16 -58 32 -67 36 -16 5 -16 9 -3 33 36 68 168 129 239
109 15 -4 31 -6 35 -5z m-401 -371 c16 -3 96 -54 100 -65 2 -4 7 -5 12 -2 5 3
15 -2 24 -10 8 -9 18 -15 21 -15 8 1 97 -51 118 -68 9 -8 17 -11 17 -6 0 5 4
4 8 -2 4 -6 53 -37 110 -68 56 -32 105 -62 108 -67 3 -5 10 -7 15 -4 5 4 9 1
9 -4 0 -6 6 -11 14 -11 8 0 16 -3 18 -7 2 -5 24 -19 51 -33 26 -13 47 -28 47
-33 0 -4 4 -6 9 -2 5 3 16 -2 24 -10 9 -8 18 -15 20 -15 5 0 209 -118 257
-149 14 -8 27 -16 30 -16 5 -1 59 -33 105 -63 11 -6 31 -18 45 -24 14 -7 36
-20 50 -29 14 -9 42 -26 63 -38 20 -11 54 -31 75 -43 20 -12 49 -28 65 -35 15
-8 27 -19 27 -25 0 -6 3 -9 6 -5 3 3 34 -11 67 -31 34 -21 74 -44 89 -51 16
-8 26 -17 23 -20 -9 -8 -246 -7 -252 2 -2 4 -12 3 -21 -1 -20 -10 -128 -9
-138 1 -4 3 -14 3 -23 -2 -9 -5 -27 -7 -41 -6 -32 3 -90 25 -90 34 0 3 -20 15
-45 26 -25 11 -45 23 -45 28 0 4 -4 7 -9 7 -4 0 -53 27 -109 60 -55 33 -105
60 -111 60 -6 0 -11 5 -11 10 0 6 -7 10 -15 10 -8 0 -15 5 -15 12 0 6 -3 8 -7
5 -3 -4 -15 0 -25 10 -10 9 -18 12 -18 7 0 -5 -4 -4 -8 2 -7 10 -82 59 -92 59
-3 0 -16 8 -30 17 -14 9 -37 22 -52 29 -16 7 -28 15 -28 19 0 4 -8 10 -17 13
-20 7 -77 39 -138 78 -22 15 -50 29 -62 33 -13 4 -23 11 -23 16 0 5 -10 12
-22 16 -13 4 -23 5 -23 3 0 -2 -10 6 -23 16 -12 11 -39 29 -60 40 -109 58
-222 130 -222 140 0 7 7 18 15 25 8 7 13 16 10 20 -3 5 -1 11 5 15 6 4 22 30
37 58 14 29 29 54 33 57 4 3 11 16 15 29 4 13 10 20 14 15 3 -5 12 -10 19 -12z
m-263 -462 c4 -6 11 -8 16 -5 5 4 9 2 9 -3 0 -5 12 -15 28 -23 25 -13 143 -82
202 -118 14 -8 39 -22 55 -31 43 -23 79 -44 85 -50 3 -3 16 -11 30 -17 38 -19
108 -59 122 -71 11 -8 51 -32 133 -76 11 -6 22 -13 25 -16 3 -3 25 -16 50 -30
25 -13 53 -31 62 -40 15 -14 13 -15 -27 -16 -24 0 -41 4 -38 9 3 5 -2 5 -13 0
-21 -10 -210 -11 -220 0 -4 3 -14 3 -23 -1 -19 -10 -207 -9 -217 1 -4 3 -14 3
-23 -1 -19 -10 -207 -9 -217 1 -4 3 -14 3 -23 -1 -24 -12 -316 -8 -315 3 1 23
17 65 24 65 4 0 17 19 29 43 11 23 32 60 46 82 13 22 31 54 39 71 8 17 19 35
25 38 6 4 9 11 6 16 -3 4 2 13 10 20 8 7 15 17 15 22 0 5 7 16 15 25 8 8 13
19 10 24 -4 5 -1 9 4 9 6 0 11 6 11 14 0 7 7 19 15 26 8 7 13 16 10 20 -3 5 1
11 7 13 20 8 26 8 33 -3z m4031 -772 c38 -12 148 -78 129 -78 -6 0 -6 -3 0 -8
17 -12 41 -54 55 -97 11 -32 13 -352 13 -1665 0 -894 -3 -1643 -7 -1665 -21
-108 -104 -190 -214 -212 -34 -7 -4601 -10 -4597 -3 2 3 -15 6 -36 7 -22 0
-50 8 -64 17 -13 9 -30 16 -36 16 -29 0 -93 89 -115 160 -11 34 -12 842 -2
856 5 6 22 10 38 9 17 -1 30 2 30 9 0 7 3 7 8 1 9 -12 72 -15 72 -3 0 4 5 8
11 8 5 0 8 -3 6 -7 -3 -5 21 -8 54 -8 34 0 59 4 59 10 0 7 3 7 8 0 9 -14 105
-14 114 0 5 7 8 7 8 0 0 -14 110 -14 110 0 0 7 3 7 8 0 4 -6 30 -11 57 -11 28
0 53 5 57 11 5 7 8 7 8 -1 0 -12 58 -13 77 -1 6 4 14 3 17 -1 5 -9 42 -8 141
2 79 8 110 14 186 42 117 42 213 106 314 210 53 54 55 57 55 76 0 6 3 8 7 5
18 -19 122 220 140 321 7 42 10 252 3 252 -3 0 -5 16 -5 35 1 19 -3 35 -8 35
-5 0 -7 9 -4 20 3 11 2 18 -3 15 -4 -3 -11 12 -15 32 -4 20 -15 54 -26 75 -11
21 -16 38 -12 38 5 0 3 4 -2 8 -11 8 -65 88 -65 97 0 3 -8 13 -17 23 -10 10
-34 37 -54 60 -20 23 -42 42 -48 42 -6 0 -11 4 -11 10 0 5 -21 24 -48 41 -26
18 -49 35 -52 39 -9 10 -139 70 -162 74 -13 3 -24 5 -25 7 -2 1 -6 2 -10 4 -5
1 -15 4 -23 8 -52 20 -160 26 -554 27 -241 0 -442 2 -445 5 -4 2 -6 194 -5
427 1 386 2 427 19 468 26 63 102 135 162 153 41 12 379 15 2354 15 1725 1
2315 -2 2345 -10z m-4023 -1329 c31 -2 57 -7 57 -11 0 -5 3 -7 8 -6 19 4 124
-34 142 -52 3 -3 17 -12 31 -20 27 -16 99 -76 99 -84 0 -2 13 -18 30 -36 17
-18 30 -37 30 -42 0 -5 8 -22 19 -36 52 -76 75 -290 41 -387 -8 -22 -14 -43
-15 -46 0 -11 -40 -84 -47 -87 -5 -2 -8 -10 -8 -17 0 -22 -124 -138 -176 -165
-27 -14 -51 -27 -54 -30 -17 -19 -142 -43 -217 -43 -24 0 -43 -4 -43 -9 0 -5
-6 -6 -12 -1 -17 10 -228 10 -228 0 0 -4 -6 -5 -12 0 -17 10 -228 10 -228 0 0
-4 -6 -5 -12 0 -17 10 -228 10 -228 0 0 -4 -5 -5 -12 -1 -7 4 -53 8 -103 9
-98 1 -115 7 -160 56 -16 18 -23 28 -15 24 13 -8 13 -7 1 8 -11 14 -14 95 -15
438 0 232 2 423 6 425 4 3 5 13 3 24 -2 12 0 18 6 15 5 -4 9 1 9 9 0 20 60 65
82 61 10 -2 18 -1 18 3 0 7 884 7 1003 1z"/>
<path d="M3957 3774 c-63 -12 -113 -21 -162 -29 -11 -2 -30 -6 -42 -9 -13 -4
-33 -8 -45 -11 -13 -4 -39 -8 -58 -11 -19 -2 -43 -7 -52 -10 -9 -3 -25 -6 -35
-8 -10 -2 -53 -11 -95 -20 -43 -9 -81 -15 -85 -14 -5 1 -19 -2 -33 -6 -14 -3
-38 -8 -55 -10 -34 -5 -60 -11 -149 -31 -75 -18 -274 -56 -298 -58 -10 -1 -18
-4 -18 -7 0 -6 -38 -26 -110 -59 -54 -25 -80 -41 -97 -61 -23 -27 -78 -112
-76 -119 0 -3 -3 -14 -8 -23 -12 -22 -39 -150 -44 -206 -6 -70 34 -302 57
-329 6 -7 7 -13 3 -13 -4 0 -2 -6 4 -14 6 -8 10 -18 9 -22 -4 -12 57 -118 96
-169 38 -49 97 -110 112 -116 12 -4 23 -145 39 -499 12 -246 14 -254 77 -300
45 -33 175 -97 243 -121 22 -8 43 -18 46 -22 3 -5 9 -8 13 -8 3 1 7 1 9 0 1 0
9 -2 17 -4 26 -5 154 -58 178 -73 12 -8 22 -11 22 -6 0 4 5 3 12 -4 7 -7 19
-12 27 -12 8 0 43 -13 78 -30 34 -16 67 -30 72 -30 5 0 31 -10 58 -22 26 -12
50 -22 53 -23 15 -3 266 -103 333 -132 43 -19 88 -36 99 -38 11 -3 30 -11 42
-18 12 -8 36 -18 54 -22 18 -4 45 -13 58 -20 44 -22 112 -12 199 31 44 21 82
41 85 44 3 3 16 11 30 18 85 44 100 53 100 63 0 5 4 8 8 5 5 -3 18 3 29 14 12
10 23 16 26 13 3 -3 15 4 27 14 11 11 33 26 48 34 15 7 45 25 67 38 22 14 60
36 85 49 25 14 52 30 60 37 8 6 42 27 75 45 33 19 63 38 66 43 3 5 9 8 13 8
11 -2 200 112 221 134 11 12 21 27 23 35 2 7 12 24 22 38 26 32 40 85 46 175
3 39 7 90 9 112 3 36 6 97 19 355 3 41 7 98 10 125 3 28 8 93 11 145 3 52 7
120 10 150 4 60 14 209 21 335 3 44 7 125 11 180 3 55 6 141 6 191 0 116 -13
139 -86 153 -88 18 -110 21 -177 27 -36 3 -76 7 -90 10 -14 2 -54 7 -90 10
-36 3 -76 7 -90 9 -14 2 -70 9 -125 15 -55 6 -118 14 -140 17 -22 2 -65 7 -95
9 -30 2 -73 6 -95 10 -51 7 -99 12 -155 18 -25 3 -70 8 -100 11 -99 13 -251
27 -318 29 -26 1 -78 -3 -115 -10z m-1178 -521 l1 -72 -35 -7 c-19 -3 -38 -6
-42 -6 -5 0 -15 -4 -25 -9 -25 -14 -29 12 -8 59 11 23 17 42 14 42 -7 0 58 93
71 102 15 11 23 -27 24 -109z m5 -270 c3 -21 6 -114 6 -207 l0 -169 -20 26
c-11 14 -20 30 -20 35 0 6 -4 12 -8 14 -10 4 -52 93 -52 111 0 7 -4 17 -9 23
-5 5 -16 40 -24 79 -14 62 -14 72 -1 93 8 12 18 21 22 19 4 -3 16 -1 27 4 11
4 32 8 46 8 23 1 27 -4 33 -36z"/>
<path d="M1533 2655 c-101 -23 -179 -107 -198 -215 -3 -17 -6 -35 -7 -38 -4
-17 24 -115 39 -139 31 -47 123 -128 123 -107 0 3 7 1 15 -6 23 -19 185 -17
185 2 0 5 4 7 9 3 5 -3 17 2 25 11 9 8 16 13 16 10 0 -24 100 97 107 129 1 5
4 21 8 35 7 33 7 78 0 115 -3 17 -6 36 -7 43 -1 6 -5 12 -9 12 -4 0 -10 8 -13
18 -8 25 -60 82 -74 82 -7 0 -12 4 -12 9 0 13 -77 41 -121 44 -20 2 -58 -2
-86 -8z"/>
</g>
</svg>
